# xmcd CD database file
#
# Track frame offsets:
#	150
#	25175
#	57141
#	82780
#	106327
#	115502
#	138486
#	170035
#	203152
#
# Disc length: 3177 seconds
#
# Revision: 1
# Processed by: cddbd v1.4PL0 Copyright (c) Steve Scherf et al.
# Submitted via: CDex 1.50
#
DISCID=6c0c6709
DTITLE=ќлег  иреев  вартет - Motreux 96
DYEAR=1996
DGENRE=Jazz
TTITLE0=Line for Lyons
TTITLE1=In a sentimental mood
TTITLE2=Speak low
TTITLE3=My little suede shoes
TTITLE4=No blues
TTITLE5=Stella by starlight
TTITLE6=Anthropology
TTITLE7=In walker bud
TTITLE8=Tear it down
EXTD=YEAR: 1996
EXTT0=
EXTT1=
EXTT2=
EXTT3=
EXTT4=
EXTT5=
EXTT6=
EXTT7=
EXTT8=
PLAYORDER=
